<svg xmlns="http://www.w3.org/2000/svg" x="0px" y="0px" viewBox="0 0 352.2 352.2" fill="#d34141">
    <path d="M306.8,134.1c3.3-1.2,6.2-3.1,8.6-5.8l0.4-0.4c7.5-8.6,6.7-21.6-1.8-29.2l-45.6-40.3c-3.8-3.3-8.6-5.2-13.7-5.2c-5.9,0-11.6,2.6-15.5,7l-0.4,0.4c-1.9,2.1-3.2,4.5-4.1,7.1c-10.6-4.6-21.9-7.9-33.6-9.9V42h6.4c11.4,0,20.6-9.2,20.6-20.6v-0.8C228,9.2,218.8,0,207.4,0h-62.8c-11.4,0-20.6,9.2-20.6,20.6v0.8c0,11.4,9.2,20.6,20.6,20.6h7.4v15.8C81.7,69.3,27.9,130.5,27.9,204c0,81.7,66.5,148.2,148.2,148.2c81.7,0,148.2-66.5,148.2-148.2C324.3,178.7,318,155,306.8,134.1z M176.1,316.2c-61.9,0-112.2-50.3-112.2-112.2S114.2,91.8,176.1,91.8c61.9,0,112.2,50.3,112.2,112.2S238,316.2,176.1,316.2z"/>
    <path d="M191,177.6V133c0-8.3-6.7-15-15-15c-8.3,0-15,6.7-15,15v44.7c-8.8,5.2-14.7,14.7-14.7,25.7c0,16.4,13.4,29.8,29.8,29.8c16.4,0,29.8-13.4,29.8-29.8C205.9,192.4,199.9,182.7,191,177.6z"/>
</svg>
